<svg data-v-0dd9719b="" version="1.0" xmlns="http://www.w3.org/2000/svg" xmlns:xlink="http://www.w3.org/1999/xlink" width="100%" height="100%" viewBox="0 0 340.000000 250.000000" preserveAspectRatio="xMidYMid meet" color-interpolation-filters="sRGB" style="margin: auto;"> <rect data-v-0dd9719b="" x="0" y="0" width="100%" height="100%" fill="#ffffff" fill-opacity="1" class="background"></rect> <rect data-v-0dd9719b="" x="0" y="0" width="100%" height="100%" fill="url(#watermark)" fill-opacity="1" class="watermarklayer"></rect> <g data-v-0dd9719b="" fill="#ef4000" class="icon-text-wrapper icon-svg-group iconsvg" transform="translate(66.12000274658203,95.00029945373535)"><g class="iconsvg-imagesvg" transform="translate(0,0)"><g><rect fill="#ef4000" fill-opacity="0" stroke-width="2" x="0" y="0" width="60" height="59.99940000599994" class="image-rect"></rect> <svg filter="url(#colors9310639361)" x="0" y="0" width="60" height="59.99940000599994" filtersec="colorsf795558203" class="image-svg-svg primary" style="overflow: visible;"><svg fill="#000000" xmlns="http://www.w3.org/2000/svg" xmlns:xlink="http://www.w3.org/1999/xlink" version="1.1" x="0px" y="0px" viewBox="3.810002088546753 3.75 82.38199615478516 82.38101196289062" enable-background="new 0 0 90 90" xml:space="preserve"><path d="M86.192,45.371c-0.008-0.005-0.015-0.011-0.021-0.017c0.001-0.143,0.021-0.281,0.021-0.424  c0-5.626-1.781-10.822-4.78-15.102c-0.887-4.992-3.206-9.771-6.983-13.681c0.001-0.004,0.002-0.029,0.002-0.029  c-0.008,0.001-0.017,0.001-0.026,0.002c-0.098-0.101-0.184-0.212-0.283-0.313c-3.979-3.979-8.912-6.394-14.06-7.299  c-4.156-2.903-9.176-4.642-14.612-4.736c-0.002-0.003-0.017-0.022-0.017-0.022c-0.007,0.007-0.012,0.014-0.017,0.021  C45.271,3.768,45.134,3.75,44.99,3.75c-5.627,0-10.821,1.78-15.101,4.779c-4.991,0.885-9.77,3.205-13.681,6.981  c-0.004,0-0.029-0.002-0.029-0.002c0.001,0.009,0.001,0.017,0.004,0.026c-0.103,0.099-0.215,0.184-0.316,0.287  c-3.979,3.979-6.393,8.911-7.298,14.058c-2.904,4.157-4.645,9.176-4.737,14.611c-0.003,0.003-0.022,0.019-0.022,0.019  c0.006,0.006,0.015,0.011,0.021,0.016c-0.001,0.145-0.021,0.282-0.021,0.426c0,5.627,1.781,10.821,4.78,15.102  c0.886,4.992,3.206,9.771,6.984,13.683c-0.002,0.005-0.003,0.027-0.003,0.027c0.01-0.001,0.018-0.001,0.027-0.003  c0.098,0.104,0.183,0.213,0.285,0.315c3.979,3.978,8.913,6.395,14.059,7.299c4.156,2.902,9.175,4.643,14.612,4.735  c0.002,0.004,0.017,0.022,0.017,0.022c0.007-0.007,0.012-0.015,0.018-0.021c0.143,0.002,0.28,0.021,0.424,0.021  c5.626,0,10.819-1.779,15.101-4.778c4.99-0.887,9.771-3.206,13.682-6.984c0.006,0.003,0.029,0.004,0.029,0.004  c-0.002-0.01-0.002-0.018-0.003-0.026c0.104-0.101,0.215-0.186,0.315-0.286c3.979-3.979,6.393-8.911,7.298-14.06  c2.903-4.155,4.643-9.177,4.736-14.613C86.173,45.387,86.192,45.371,86.192,45.371z M78.658,58.871  c-1.673,2.143-3.723,3.983-6.05,5.453c-0.364-2.506-0.762-4.887-1.184-7.173c-0.015-0.361-0.021-0.722-0.046-1.088  c2.603-1.677,4.961-3.294,6.996-4.75C78.876,53.816,78.966,56.368,78.658,58.871z M70.335,70.809c0,0-0.474-0.051-1.297-0.156  c0.178-0.393,0.321-0.803,0.48-1.204c0.21-0.082,0.411-0.176,0.619-0.262C70.204,69.727,70.271,70.257,70.335,70.809z   M58.947,78.591c-2.696,0.332-5.448,0.185-8.133-0.423c1.515-2.027,2.919-3.992,4.231-5.905c0.247-0.268,0.501-0.526,0.741-0.803  c3.025,0.653,5.836,1.177,8.305,1.588C62.675,75.172,60.936,77.039,58.947,78.591z M44.622,81.146c0,0-0.298-0.371-0.806-1.026  c0.403-0.15,0.793-0.339,1.189-0.512c0.207,0.091,0.415,0.168,0.623,0.252C45.293,80.286,44.966,80.712,44.622,81.146z   M31.069,78.599c-2.142-1.672-3.983-3.723-5.453-6.051c2.508-0.363,4.891-0.76,7.175-1.184c0.362-0.014,0.721-0.02,1.086-0.045  c1.676,2.603,3.294,4.961,4.747,6.996C36.125,78.815,33.573,78.907,31.069,78.599z M19.289,68.978  c0.392,0.178,0.803,0.322,1.204,0.481c0.082,0.21,0.175,0.411,0.262,0.618c-0.54,0.066-1.071,0.134-1.623,0.198  C19.133,70.275,19.184,69.8,19.289,68.978z M11.774,50.755c2.027,1.515,3.992,2.918,5.903,4.232  c0.267,0.247,0.528,0.499,0.806,0.741c-0.655,3.025-1.177,5.836-1.588,8.303c-2.125-1.413-3.991-3.154-5.544-5.143  C11.019,56.193,11.167,53.439,11.774,50.755z M11.345,31.007c1.671-2.141,3.723-3.98,6.05-5.452c0.363,2.505,0.76,4.886,1.182,7.169  c0.014,0.364,0.021,0.725,0.045,1.093c-2.602,1.677-4.959,3.294-6.995,4.748C11.125,36.062,11.037,33.512,11.345,31.007z   M19.667,19.073c0,0,0.474,0.052,1.297,0.157c-0.179,0.392-0.322,0.8-0.482,1.202c-0.208,0.083-0.411,0.176-0.618,0.264  C19.797,20.156,19.729,19.624,19.667,19.073z M31.054,11.29c2.696-0.332,5.446-0.183,8.133,0.423  c-1.515,2.028-2.919,3.993-4.232,5.907c-0.25,0.267-0.498,0.526-0.741,0.804c-3.025-0.655-5.835-1.178-8.303-1.589  C27.326,14.71,29.066,12.842,31.054,11.29z M45.379,8.737c0,0,0.298,0.371,0.806,1.027c-0.404,0.151-0.794,0.338-1.191,0.51  c-0.205-0.089-0.413-0.168-0.623-0.251C44.708,9.595,45.035,9.17,45.379,8.737z M58.933,11.285c2.141,1.671,3.982,3.722,5.451,6.049  c-2.505,0.363-4.885,0.76-7.166,1.183c-0.366,0.015-0.729,0.021-1.095,0.046c-1.676-2.603-3.294-4.96-4.747-6.994  C53.878,11.066,56.428,10.977,58.933,11.285z M70.713,20.903c-0.393-0.178-0.803-0.322-1.205-0.481  c-0.082-0.208-0.175-0.411-0.262-0.616c0.541-0.065,1.071-0.135,1.622-0.197C70.868,19.608,70.818,20.082,70.713,20.903z   M78.228,39.126c-2.028-1.515-3.991-2.917-5.905-4.233c-0.268-0.247-0.527-0.499-0.805-0.739c0.654-3.026,1.177-5.838,1.588-8.304  c2.126,1.415,3.991,3.156,5.545,5.144C78.982,33.688,78.834,36.44,78.228,39.126z M67.442,54.914  c-0.908,0.563-1.849,1.131-2.812,1.699c0.45-1.054,0.873-2.124,1.287-3.199c0.377-0.831,0.731-1.648,1.063-2.449  c0.278,1.189,0.548,2.411,0.808,3.675C67.673,54.73,67.562,54.823,67.442,54.914z M53.815,67.862  c-1.038-0.243-2.104-0.508-3.189-0.787c1.059-0.425,2.111-0.88,3.16-1.347c0.858-0.324,1.692-0.652,2.497-0.984  c-0.645,1.036-1.318,2.092-2.025,3.169C54.108,67.895,53.965,67.881,53.815,67.862z M35.028,67.384  c-0.562-0.906-1.131-1.848-1.7-2.813c1.061,0.453,2.134,0.88,3.215,1.294c0.828,0.373,1.64,0.726,2.436,1.057  c-1.19,0.279-2.413,0.549-3.677,0.811C35.21,67.612,35.12,67.504,35.028,67.384z M22.079,53.757c0.245-1.039,0.508-2.105,0.787-3.19  c0.427,1.062,0.882,2.117,1.35,3.166c0.323,0.857,0.649,1.688,0.981,2.49c-1.036-0.645-2.092-1.317-3.169-2.027  C22.046,54.05,22.061,53.907,22.079,53.757z M22.564,34.962c0.905-0.561,1.844-1.127,2.808-1.696  c-0.45,1.055-0.875,2.124-1.288,3.199c-0.375,0.833-0.733,1.651-1.065,2.452c-0.278-1.189-0.548-2.412-0.81-3.675  C22.331,35.149,22.443,35.055,22.564,34.962z M36.178,22.019c1.042,0.244,2.11,0.508,3.197,0.788  c-1.066,0.428-2.125,0.885-3.178,1.354c-0.853,0.322-1.682,0.647-2.479,0.978c0.645-1.038,1.318-2.093,2.028-3.17  C35.89,21.985,36.031,22,36.178,22.019z M54.974,22.497c0.562,0.908,1.129,1.849,1.699,2.814c-1.055-0.45-2.125-0.876-3.201-1.288  c-0.831-0.375-1.647-0.731-2.445-1.063c1.188-0.278,2.41-0.547,3.673-0.808C54.791,22.268,54.881,22.378,54.974,22.497z   M65.483,45.167c-0.704,2.288-1.495,4.601-2.371,6.885c-1.062,2.369-2.313,4.878-3.788,7.532c-2.121,1.121-4.318,2.2-6.56,3.195  c-2.419,0.927-5.077,1.812-7.991,2.645c-2.282-0.704-4.592-1.49-6.871-2.368c-2.374-1.06-4.887-2.317-7.546-3.794  c-1.12-2.113-2.195-4.307-3.19-6.543c-0.925-2.423-1.814-5.087-2.648-8.007c0.703-2.283,1.492-4.592,2.369-6.874  c1.061-2.373,2.315-4.885,3.793-7.544c2.109-1.116,4.296-2.188,6.525-3.182c2.43-0.929,5.097-1.82,8.025-2.656  c2.288,0.706,4.603,1.496,6.889,2.375c2.368,1.058,4.875,2.312,7.528,3.785c1.118,2.116,2.195,4.311,3.192,6.549  C63.763,39.589,64.65,42.25,65.483,45.167z M67.136,39.315c-0.428-1.062-0.883-2.117-1.351-3.167  c-0.323-0.856-0.651-1.688-0.983-2.49c1.039,0.644,2.094,1.317,3.172,2.026c-0.018,0.146-0.033,0.29-0.052,0.439  C67.678,37.164,67.414,38.23,67.136,39.315z M68.109,28.734c0.086,0.897,0.13,1.854,0.127,2.869  c-1.898-1.337-3.95-2.566-6.106-3.699c-1.229-2.35-2.488-4.406-3.758-6.198c0.715-0.001,1.424,0.021,2.123,0.073  c2.26,0.087,4.431,0.49,6.488,1.14C67.572,24.772,67.974,26.713,68.109,28.734z M49.882,17.139c0.694,0.575,1.401,1.22,2.115,1.939  c-2.285,0.397-4.604,0.98-6.932,1.704c-2.529-0.793-4.875-1.357-7.039-1.726c0.506-0.507,1.021-0.992,1.552-1.449  c1.659-1.536,3.481-2.788,5.395-3.782C46.699,14.718,48.354,15.808,49.882,17.139z M28.793,21.832  c0.897-0.085,1.855-0.13,2.87-0.127c-1.338,1.898-2.566,3.95-3.7,6.108c-2.348,1.227-4.405,2.487-6.197,3.758  c-0.002-0.717,0.021-1.425,0.072-2.125c0.087-2.26,0.49-4.431,1.141-6.488C24.832,22.368,26.772,21.967,28.793,21.832z M17.2,40.061  c0.575-0.695,1.219-1.403,1.938-2.117c0.397,2.286,0.98,4.606,1.704,6.933c-0.793,2.528-1.358,4.874-1.725,7.041  c-0.508-0.505-0.993-1.024-1.451-1.555c-1.536-1.658-2.788-3.479-3.781-5.394C14.778,43.242,15.868,41.586,17.2,40.061z   M21.892,61.147c-0.085-0.897-0.13-1.853-0.127-2.867c1.898,1.335,3.95,2.563,6.106,3.698c1.227,2.349,2.488,4.403,3.758,6.196  c-0.715,0.001-1.424-0.021-2.123-0.073c-2.26-0.087-4.43-0.49-6.488-1.142C22.428,65.108,22.027,63.169,21.892,61.147z   M40.12,72.741c-0.695-0.574-1.402-1.22-2.119-1.939c2.288-0.396,4.608-0.979,6.936-1.703c2.529,0.793,4.875,1.357,7.042,1.726  c-0.509,0.507-1.023,0.994-1.556,1.452c-1.66,1.536-3.48,2.785-5.394,3.781C43.301,75.164,41.646,74.075,40.12,72.741z   M61.208,68.049c-0.897,0.085-1.855,0.13-2.87,0.127c1.337-1.898,2.566-3.949,3.7-6.106c2.347-1.227,4.404-2.487,6.197-3.757  c0.001,0.714-0.021,1.423-0.073,2.122c-0.087,2.261-0.49,4.431-1.141,6.487C65.169,67.513,63.229,67.913,61.208,68.049z   M72.801,49.822c-0.575,0.693-1.22,1.401-1.939,2.116c-0.396-2.286-0.979-4.606-1.703-6.933c0.794-2.53,1.358-4.875,1.726-7.041  c0.508,0.505,0.993,1.022,1.451,1.554c1.535,1.658,2.786,3.479,3.78,5.392C75.224,46.64,74.134,48.296,72.801,49.822z   M10.333,44.947c-0.087,0.208-0.167,0.416-0.249,0.624c-0.43-0.337-0.854-0.664-1.287-1.008c0,0,0.371-0.299,1.027-0.805  C9.973,44.16,10.163,44.551,10.333,44.947z M79.668,44.934c0.088-0.206,0.167-0.414,0.249-0.623c0.43,0.335,0.854,0.664,1.288,1.008  c0,0-0.372,0.299-1.026,0.806C80.026,45.721,79.839,45.33,79.668,44.934z M80.96,41.203c0.424-1.608,0.695-3.244,0.811-4.892  c0.883,2.129,1.438,4.417,1.631,6.808C82.579,42.464,81.765,41.824,80.96,41.203z M77.085,25c-1.076-0.932-2.236-1.76-3.451-2.51  c0.148-1.011,0.272-1.92,0.377-2.717C75.285,21.397,76.317,23.152,77.085,25z M67.785,16.87c-0.838-1.436-1.803-2.786-2.887-4.032  c2.13,0.882,4.141,2.107,5.966,3.661C69.82,16.618,68.794,16.741,67.785,16.87z M53.588,8.155c-1.417,0.101-2.825,0.336-4.216,0.664  C48.762,8,48.207,7.267,47.718,6.631C49.768,6.879,51.738,7.391,53.588,8.155z M41.262,8.979c-1.606-0.422-3.244-0.694-4.891-0.809  c2.13-0.884,4.418-1.438,6.807-1.629C42.523,7.362,41.886,8.176,41.262,8.979z M25.061,12.857c-0.93,1.073-1.76,2.233-2.511,3.45  c-1.009-0.148-1.919-0.273-2.716-0.377C21.458,14.656,23.213,13.624,25.061,12.857z M16.56,19.077  c0.119,1.043,0.242,2.07,0.37,3.079c-1.435,0.837-2.785,1.803-4.032,2.887C13.779,22.912,15.006,20.901,16.56,19.077z M8.214,36.352  c0.101,1.418,0.335,2.826,0.664,4.216c-0.82,0.611-1.552,1.165-2.188,1.656C6.939,40.174,7.45,38.202,8.214,36.352z M9.039,48.678  c-0.422,1.609-0.695,3.244-0.809,4.893c-0.883-2.13-1.438-4.418-1.631-6.808C7.421,47.417,8.236,48.057,9.039,48.678z M12.917,64.88  c1.074,0.933,2.236,1.761,3.451,2.513c-0.149,1.01-0.273,1.92-0.378,2.716C14.716,68.483,13.685,66.729,12.917,64.88z   M22.217,73.013c0.837,1.434,1.801,2.785,2.886,4.032c-2.13-0.881-4.14-2.108-5.965-3.661C20.18,73.264,21.209,73.141,22.217,73.013  z M36.414,81.729c1.416-0.102,2.825-0.337,4.215-0.664c0.61,0.818,1.165,1.55,1.655,2.188  C40.234,83.002,38.263,82.491,36.414,81.729z M48.736,80.901c1.608,0.423,3.244,0.696,4.89,0.812  c-2.127,0.883-4.414,1.436-6.803,1.629C47.478,82.52,48.115,81.705,48.736,80.901z M64.938,77.025  c0.933-1.074,1.763-2.235,2.514-3.451c1.012,0.149,1.921,0.274,2.718,0.378C68.542,75.227,66.788,76.258,64.938,77.025z   M73.442,70.805c-0.119-1.043-0.243-2.07-0.371-3.08c1.437-0.838,2.786-1.803,4.033-2.888C76.224,66.968,74.997,68.98,73.442,70.805  z M81.787,53.529c-0.102-1.42-0.335-2.825-0.665-4.216c0.821-0.611,1.552-1.166,2.189-1.656  C83.062,49.708,82.552,51.679,81.787,53.529z"></path></svg></svg> <defs><filter id="colors9310639361"><feColorMatrix type="matrix" values="0 0 0 0 0  0 0 0 0 0.6171875  0 0 0 0 0.99609375  0 0 0 1 0" class="icon-fecolormatrix"></feColorMatrix></filter> <filter id="colorsf795558203"><feColorMatrix type="matrix" values="0 0 0 0 0.99609375  0 0 0 0 0.99609375  0 0 0 0 0.99609375  0 0 0 1 0" class="icon-fecolormatrix"></feColorMatrix></filter> <filter id="colorsb3125065164"><feColorMatrix type="matrix" values="0 0 0 0 0  0 0 0 0 0  0 0 0 0 0  0 0 0 1 0" class="icon-fecolormatrix"></feColorMatrix></filter></defs></g></g> <g transform="translate(67.00000381469727,4.0534515380859375)"><g data-gra="path-name" fill-rule="" class="tp-name iconsvg-namesvg" transform="translate(0,0)"><g transform="scale(1)"><g><path d="M33.8-12.96Q34.29-12.96 34.6-12.64 34.92-12.33 34.92-11.83L34.92-11.83Q34.92-11.38 34.58-11.05 34.24-10.71 33.8-10.71L33.8-10.71 30.11-10.71Q29.92-6.08 29.47-2.61L29.47-2.61 29.61-2.61Q30.42-2.61 30.89-2.79 31.36-2.97 31.61-3.17 31.86-3.38 31.95-3.42L31.95-3.42Q32.22-3.65 32.58-3.69L32.58-3.69 32.58-3.69 32.63-3.69 32.63-3.69 32.67-3.69 32.67-3.69Q33.16-3.69 33.48-3.38 33.8-3.06 33.8-2.56L33.8-2.56Q33.8-2.11 33.46-1.8 33.12-1.48 32.67-1.48L32.67-1.48 29.29-1.48Q28.89 1.26 27.9 3.22 26.91 5.17 24.7 5.17L24.7 5.17Q24.3 5.17 24.19 5 24.07 4.81 23.98 4.32L23.98 4.32Q23.85 3.69 23.63 3.28 23.4 2.88 22.63 2.59 21.87 2.29 20.43 2.29L20.43 2.29 20.43 1.67 24.34 1.67Q24.88 1.67 25.15 1.57 25.43 1.48 25.65 1.17L25.65 1.17Q26.14 0.49 26.55-1.48L26.55-1.48 14.49-1.48Q14.31-0.36 13.46-0.36L13.46-0.36Q12.96-0.36 12.33-0.72 11.7-1.08 11.7-1.13L11.7-1.13Q11.97-2.56 12.4-5.42 12.82-8.28 13.14-10.71L13.14-10.71 9.31-10.71Q9.09-10.71 8.91-10.89 8.73-11.07 8.73-11.29L8.73-11.29Q8.73-11.52 8.91-11.7 9.09-11.88 9.31-11.88L9.31-11.88 13.32-11.88 13.32-11.92Q14.13-17.82 14.35-21.38L14.35-21.38Q12.24-18.27 10.13-16.47L10.13-16.47 9.72-16.83Q11.61-19.35 13.18-23.42 14.76-27.49 15.57-31.54L15.57-31.54Q15.62-31.54 15.84-31.57 16.06-31.59 16.38-31.59L16.38-31.59Q18.63-31.59 18.63-30.29L18.63-30.29Q18.63-29.97 18.5-29.56L18.5-29.56Q18.09-28.3 17.1-26.19L17.1-26.19 30.06-26.19Q30.87-26.19 31.32-26.37 31.77-26.55 32.17-26.86L32.17-26.86Q32.4-27.04 32.63-27.16 32.85-27.27 33.12-27.27L33.12-27.27Q33.62-27.27 33.93-26.95 34.24-26.64 34.24-26.14L34.24-26.14Q34.24-25.7 33.91-25.38 33.57-25.06 33.12-25.06L33.12-25.06 16.52-25.06Q15.79-23.63 14.8-22L14.8-22Q14.89-22.05 15.23-22.12 15.57-22.18 15.88-22.18L15.88-22.18Q17.28-22.18 17.1-20.97L17.1-20.97 27.77-20.97 27.77-21.73Q27.9-21.82 28.37-21.98 28.84-22.14 29.29-22.14L29.29-22.14Q30.42-22.14 30.42-20.97L30.42-20.97Q30.42-19.04 30.38-17.46 30.33-15.88 30.29-14.85L30.29-14.85Q30.2-12.69 30.2-11.92L30.2-11.92 30.2-11.88 30.73-11.88Q31.54-11.88 31.99-12.06 32.45-12.24 32.85-12.55L32.85-12.55Q33.07-12.73 33.3-12.85 33.52-12.96 33.8-12.96L33.8-12.96ZM7.96-24.61Q7.47-26.14 6.17-27.95 4.86-29.74 3.46-31.09L3.46-31.09 3.73-31.41Q6.79-30.91 8.17-29.88 9.54-28.84 9.54-27.54L9.54-27.54Q9.54-26.05 7.96-24.61L7.96-24.61ZM5.35-15.48Q4.86-16.92 3.58-18.68 2.29-20.43 0.94-21.69L0.94-21.69 1.21-21.96Q4.18-21.46 5.54-20.5 6.88-19.53 6.88-18.27L6.88-18.27Q6.88-17.55 6.46-16.81 6.03-16.06 5.35-15.48L5.35-15.48ZM16.02-11.92L16.02-11.88 27.49-11.88 27.49-11.92 27.77-19.84 16.96-19.84Q16.52-15.48 16.02-11.92L16.02-11.92ZM19.21-18.54Q21.69-18.09 22.81-17.12 23.94-16.16 23.94-14.89L23.94-14.89Q23.94-14.17 23.58-13.43 23.22-12.69 22.63-12.11L22.63-12.11Q22.23-13.54 21.17-15.28 20.11-17.01 18.99-18.27L18.99-18.27 19.21-18.54ZM1.17 2.65Q3.6-0.49 5.15-4.34 6.71-8.19 7.92-13.63L7.92-13.63 8.46-13.5Q7.96-7.29 7.42-3.49 6.88 0.32 6.03 2.27 5.17 4.23 3.92 4.23L3.92 4.23Q2.75 4.23 1.17 2.65L1.17 2.65ZM26.73-2.61Q27.18-5.49 27.4-10.71L27.4-10.71 15.84-10.71 14.67-2.61 26.73-2.61ZM18.59-9.76Q21.06-9.27 22.16-8.3 23.27-7.33 23.27-6.08L23.27-6.08Q23.27-4.63 22-3.28L22-3.28Q21.6-4.72 20.54-6.43 19.48-8.14 18.36-9.49L18.36-9.49 18.59-9.76ZM68.63-27.04Q69.07-27.04 69.41-26.71 69.75-26.37 69.75-25.92L69.75-25.92Q69.75-25.47 69.44-25.13 69.12-24.79 68.63-24.79L68.63-24.79 54.9-24.79 54.9-19.62 64.13-19.62 64.13-20.25Q64.31-20.34 64.84-20.5 65.38-20.65 65.88-20.65L65.88-20.65Q67-20.65 67-19.62L67-19.62 67 1.75Q67 3.38 66.67 4.25 66.33 5.13 65.3 5.13L65.3 5.13Q64.71 5.13 64.46 4.88 64.22 4.63 63.95 4.09L63.95 4.09Q63.58 3.19 62.8 2.68 62.01 2.16 59.94 2.16L59.94 2.16 59.94 1.48 63.22 1.48Q63.77 1.48 63.95 1.3 64.13 1.13 64.13 0.67L64.13 0.67 64.13-18.45 43.38-18.45 43.38 4.37Q43.38 5.22 42.08 5.22L42.08 5.22Q41.58 5.22 41.11 5.13 40.63 5.04 40.5 5L40.5 5 40.5-20.43Q40.63-20.47 41.13-20.61 41.63-20.75 42.12-20.75L42.12-20.75Q43.38-20.75 43.38-19.62L43.38-19.62 52.02-19.62 52.02-24.79 38.07-24.79Q37.84-24.79 37.66-24.97 37.48-25.15 37.48-25.38L37.48-25.38Q37.48-25.61 37.66-25.79 37.84-25.96 38.07-25.96L38.07-25.96 52.02-25.96 52.02-31.32Q52.16-31.36 52.65-31.5 53.14-31.63 53.64-31.63L53.64-31.63Q54.9-31.63 54.9-30.51L54.9-30.51 54.9-25.96 65.56-25.96Q66.38-25.96 66.83-26.14 67.28-26.32 67.68-26.64L67.68-26.64Q67.91-26.82 68.13-26.93 68.35-27.04 68.63-27.04L68.63-27.04ZM61.7-3.87L54.9-3.87 54.9 3.51Q54.9 4.37 53.64 4.37L53.64 4.37Q53.14 4.37 52.65 4.25 52.16 4.14 52.02 4.09L52.02 4.09 52.02-3.87 45.18-3.87Q44.95-3.87 44.77-4.05 44.59-4.23 44.59-4.46L44.59-4.46Q44.59-4.68 44.77-4.86 44.95-5.04 45.18-5.04L45.18-5.04 52.02-5.04 52.02-9.99 46.13-9.99Q45.9-9.99 45.72-10.15 45.54-10.3 45.54-10.53L45.54-10.53Q45.54-10.8 45.72-10.96 45.9-11.12 46.13-11.12L46.13-11.12 53.37-11.12 53.86-11.12 54.72-11.12Q55.8-14.08 56.75-17.86L56.75-17.86Q56.92-17.86 57.58-17.8 58.23-17.73 58.84-17.44 59.45-17.14 59.45-16.61L59.45-16.61Q59.45-16.34 59.17-15.84L59.17-15.84Q57.64-13.32 55.75-11.12L55.75-11.12 58-11.12Q58.81-11.12 59.27-11.29 59.72-11.47 60.12-11.79L60.12-11.79Q60.34-11.97 60.57-12.08 60.8-12.2 61.06-12.2L61.06-12.2Q61.56-12.2 61.88-11.88 62.19-11.56 62.19-11.07L62.19-11.07Q62.19-10.62 61.85-10.3 61.52-9.99 61.06-9.99L61.06-9.99 54.9-9.99 54.9-5.04 58.59-5.04Q59.45-5.04 59.89-5.22 60.34-5.4 60.75-5.71L60.75-5.71Q60.97-5.89 61.2-6.01 61.42-6.12 61.7-6.12L61.7-6.12Q62.14-6.12 62.46-5.78 62.77-5.44 62.77-5L62.77-5Q62.77-4.54 62.46-4.21 62.14-3.87 61.7-3.87L61.7-3.87ZM47.66-17.82Q49.73-16.96 50.72-15.95 51.7-14.94 51.7-13.95L51.7-13.95Q51.7-13.23 51.23-12.62 50.76-12.01 49.95-11.61L49.95-11.61Q49.81-12.82 48.89-14.83 47.97-16.83 47.2-17.55L47.2-17.55 47.66-17.82ZM97.56-17.37Q98.86-15.48 101.61-14.11 104.35-12.73 107.19-12.33L107.19-12.33Q106.42-12.24 106-11.88 105.57-11.52 105.16-10.89L105.16-10.89Q104.85-10.44 104.58-10.19 104.31-9.95 103.91-9.95L103.91-9.95Q103.5-9.95 103.09-10.13L103.09-10.13Q101.47-10.89 100.08-12.15L100.08-12.15 99.13-13.14 99.13-12.82 98.91-10.48Q98.46-6.3 98.5-6.52L98.5-6.52 100.98-6.52 100.98-7.25Q101.07-7.29 101.47-7.42 101.88-7.56 102.28-7.56L102.28-7.56Q102.87-7.56 103.25-7.18 103.63-6.79 103.59-5.85L103.59-5.85Q103.32-0.54 102.47 2.29 101.61 5.13 99.22 5.13L99.22 5.13Q98.82 5.13 98.64 4.93 98.46 4.72 98.28 4.27L98.28 4.27Q98.01 3.69 97.72 3.31 97.42 2.92 96.66 2.65 95.89 2.38 94.5 2.38L94.5 2.38 94.5 1.84 98.69 1.84Q99.41 1.84 99.72 1.53L99.72 1.53Q100.58 0.67 100.94-5.35L100.94-5.35 90-5.35Q89.95-4.59 89.19-4.59L89.19-4.59Q88.74-4.59 88.22-4.81 87.7-5.04 87.57-5.13L87.57-5.13Q88.2-9.36 88.34-11.16L88.34-11.16Q88.42-11.21 88.81-11.34 89.19-11.47 89.59-11.47L89.59-11.47Q90.63-11.47 90.63-10.3L90.63-10.3Q90.63-9.4 90.18-6.52L90.18-6.52 95.98-6.52 96.16-7.96 96.66-12.33 89.64-12.33Q89.41-12.33 89.23-12.49 89.06-12.64 89.06-12.91L89.06-12.91Q89.06-13.14 89.23-13.3 89.41-13.46 89.64-13.46L89.64-13.46 96.75-13.46 96.8-13.95Q96.93-14.04 97.42-14.17 97.92-14.31 98.33-14.26L98.33-14.26 98.19-14.49Q97.38-15.71 96.7-17.37L96.7-17.37 91.8-17.37Q90.77-15.39 89.1-13.5L89.1-13.5 88.38-12.73Q86.53-10.75 84.19-9.45L84.19-9.45 83.88-9.99Q87.44-12.78 89.59-17.37L89.59-17.37 84.83-17.37Q84.56-17.37 84.4-17.55 84.24-17.73 84.24-17.95L84.24-17.95Q84.24-18.18 84.4-18.36 84.56-18.54 84.83-18.54L84.83-18.54 90.13-18.54Q90.77-19.93 91.31-21.91L91.31-21.91 85.81-21.91Q85.59-21.91 85.41-22.07 85.23-22.23 85.23-22.5L85.23-22.5Q85.23-22.72 85.41-22.88 85.59-23.04 85.81-23.04L85.81-23.04 91.62-23.04Q92.61-26.82 92.97-31.54L92.97-31.54Q93.06-31.59 93.4-31.66 93.73-31.72 94.14-31.72L94.14-31.72Q95.76-31.72 95.76-30.33L95.76-30.33Q95.76-30.02 95.72-29.88L95.72-29.88Q95.09-25.96 94.23-23.04L94.23-23.04 97.16-23.04Q97.88-24.61 98.66-26.8 99.45-28.98 99.86-30.46L99.86-30.46Q100.08-30.46 100.73-30.38 101.38-30.29 102.02-29.99 102.64-29.7 102.64-29.11L102.64-29.11Q102.64-28.71 102.24-28.17L102.24-28.17Q99.9-25.06 97.83-23.04L97.83-23.04 100.39-23.04Q101.2-23.04 101.66-23.22 102.11-23.4 102.4-23.65 102.69-23.89 102.91-23.98L102.91-23.98 102.96-23.98Q103.19-24.12 103.45-24.12L103.45-24.12Q103.91-24.12 104.22-23.8 104.53-23.49 104.53-23.04L104.53-23.04Q104.53-22.59 104.22-22.25 103.91-21.91 103.45-21.91L103.45-21.91 93.83-21.91Q93.02-19.75 92.38-18.54L92.38-18.54 102.15-18.54Q102.96-18.54 103.39-18.72 103.81-18.9 104.31-19.21L104.31-19.21Q104.81-19.62 105.21-19.62L105.21-19.62Q105.7-19.62 106.02-19.3 106.34-18.99 106.34-18.5L106.34-18.5Q106.34-18.04 106.02-17.71 105.7-17.37 105.21-17.37L105.21-17.37 97.56-17.37ZM81.22-29.97Q81.36-30.06 81.86-30.22 82.35-30.38 82.8-30.38L82.8-30.38Q83.79-30.38 83.79-29.34L83.79-29.34 83.79 1.71Q83.79 3.33 83.47 4.21 83.16 5.08 82.26 5.08L82.26 5.08Q81.77 5.08 81.54 4.86 81.31 4.63 81.09 4.18L81.09 4.18Q80.73 3.33 80.03 2.86 79.33 2.38 77.49 2.38L77.49 2.38 77.49 1.71 80.41 1.71Q80.91 1.71 81.07 1.53 81.22 1.35 81.22 0.9L81.22 0.9 81.22-9.81 77.44-9.81Q77.22-5 76.39-1.33 75.56 2.34 73.48 5.22L73.48 5.22 72.99 4.86Q74.34 0.85 74.72-3.67 75.11-8.19 75.11-14.63L75.11-14.63 75.11-17.01 75.11-29.97Q75.24-30.02 75.67-30.15 76.09-30.29 76.5-30.29L76.5-30.29Q77.63-30.29 77.63-29.16L77.63-29.16 81.22-29.16 81.22-29.97ZM86.44-30.24Q88.52-29.38 89.53-28.28 90.54-27.18 90.54-26.05L90.54-26.05Q90.54-25.29 90.11-24.61 89.69-23.94 88.97-23.45L88.97-23.45Q88.69-24.75 87.84-26.75 86.98-28.75 86.08-29.97L86.08-29.97 86.44-30.24ZM81.22-20.25L81.22-27.99 77.63-27.99 77.63-20.25 81.22-20.25ZM77.53-10.98L81.22-10.98 81.22-19.08 77.63-19.08 77.63-17.01Q77.63-13.09 77.53-10.98L77.53-10.98ZM99.9-1.93Q99.9-1.48 99.58-1.15 99.27-0.81 98.82-0.81L98.82-0.81 85.32-0.81Q85.09-0.81 84.91-0.99 84.73-1.17 84.73-1.4L84.73-1.4Q84.73-1.62 84.91-1.8 85.09-1.98 85.32-1.98L85.32-1.98 95.72-1.98Q96.57-1.98 97.02-2.16 97.47-2.34 97.88-2.65L97.88-2.65Q98.1-2.83 98.33-2.95 98.55-3.06 98.82-3.06L98.82-3.06Q99.27-3.06 99.58-2.72 99.9-2.38 99.9-1.93L99.9-1.93ZM118.94-9.36Q118.94-8.5 117.72-8.5L117.72-8.5Q117.27-8.5 116.82-8.59 116.37-8.69 116.23-8.73L116.23-8.73 116.23-18.13Q113.53-13.09 109.35-9.49L109.35-9.49 108.9-10.08Q111.11-12.78 112.72-16.34 114.34-19.89 115.25-23.8L115.25-23.8 110.11-23.8Q109.89-23.8 109.71-23.98 109.53-24.16 109.53-24.39L109.53-24.39Q109.53-24.61 109.71-24.79 109.89-24.97 110.11-24.97L110.11-24.97 116.23-24.97 116.23-31.23Q116.37-31.27 116.82-31.41 117.27-31.54 117.72-31.54L117.72-31.54Q118.94-31.54 118.94-30.42L118.94-30.42 118.94-24.97 120.73-24.97Q121.55-24.97 122.02-25.15 122.49-25.33 122.74-25.54 122.98-25.74 123.08-25.79L123.08-25.79Q123.34-26.01 123.7-26.05L123.7-26.05 123.7-26.05 123.75-26.05 123.75-26.05 123.8-26.05 123.8-26.05Q124.29-26.05 124.61-25.74 124.92-25.43 124.92-24.93L124.92-24.93Q124.92-24.48 124.61-24.14 124.29-23.8 123.8-23.8L123.8-23.8 118.94-23.8 118.94-20.79 118.98-20.7Q123.89-18.99 123.89-16.34L123.89-16.34Q123.89-15.07 122.85-13.54L122.85-13.54Q122.17-15.39 121.14-17.01 120.11-18.63 118.98-19.8L118.98-19.8 118.94-19.75 118.94-9.36ZM128.88-9.49Q128.88-8.64 127.66-8.64L127.66-8.64Q127.17-8.64 126.7-8.75 126.22-8.87 126.09-8.91L126.09-8.91 126.09-29.65Q126.22-29.7 126.7-29.83 127.17-29.97 127.62-29.97L127.62-29.97Q128.88-29.97 128.88-28.84L128.88-28.84 128.88-28.8 136.84-28.8 136.84-29.65Q136.98-29.7 137.45-29.83 137.93-29.97 138.42-29.97L138.42-29.97Q139.68-29.97 139.68-28.84L139.68-28.84 139.68-9.49Q139.68-8.64 138.47-8.64L138.47-8.64Q137.97-8.64 137.47-8.75 136.98-8.87 136.84-8.91L136.84-8.91 136.84-10.66 128.88-10.66 128.88-9.49ZM136.84-23.27L136.84-27.58 128.88-27.58 128.88-23.27 136.84-23.27ZM128.88-22.05L128.88-17.59 136.84-17.59 136.84-22.05 128.88-22.05ZM128.88-16.38L128.88-11.83 136.84-11.83 136.84-16.38 128.88-16.38ZM123.89-7.88Q129.38-6.17 129.38-3.38L129.38-3.38Q129.38-2.48 128.86-1.64 128.34-0.81 127.58-0.18L127.58-0.18Q127.31-1.93 126.07-4.16 124.83-6.39 123.53-7.56L123.53-7.56 123.89-7.88ZM133.83-2.7Q133.83-1.26 134.17-0.58 134.5 0.09 134.87 0.45 135.22 0.81 135.36 0.94L135.36 0.94Q135.85 1.44 135.85 2.21L135.85 2.21Q135.85 2.83 135.45 3.28 135.04 3.73 134.28 3.73L134.28 3.73 122.17 3.73Q120.42 3.73 119.18 2.36 117.94 0.99 117.94-0.99L117.94-0.99 117.94-6.61Q118.08-6.66 118.6-6.82 119.11-6.97 119.61-6.97L119.61-6.97Q120.78-6.97 120.78-5.94L120.78-5.94 120.78-1.08Q120.78-0.27 121.32 0.32 121.86 0.9 122.58 0.9L122.58 0.9 131.31 0.9Q132.44 0.9 132.91 0.09 133.38-0.72 133.38-2.7L133.38-2.7 133.83-2.7ZM135-6.61Q138.56-4.91 140.13-3.26 141.7-1.62 141.7-0.22L141.7-0.22Q141.7 0.77 141.05 1.55 140.4 2.34 139.41 2.79L139.41 2.79Q139.14 0.72 137.7-1.93 136.26-4.59 134.69-6.3L134.69-6.3 135-6.61ZM113.58-6.34L114.17-6.34Q114.93-4.18 114.93-2.21L114.93-2.21Q114.93 0.22 113.78 1.67 112.64 3.1 110.92 3.1L110.92 3.1Q110.07 3.1 109.31 2.79L109.31 2.79Q113.04-1.21 113.58-6.34L113.58-6.34Z" transform="translate(-0.940000057220459, 31.719999313354492)"></path></g> <!----> <!----> <!----> <!----> <!----> <!----> <!----></g></g> <g data-gra="path-slogan" fill-rule="" class="tp-slogan iconsvg-slogansvg" fill="#000000" transform="translate(5,42.939998626708984)"><rect x="0" height="1" y="3.9750003814697266" width="3.8349952697753906"></rect> <rect height="1" y="3.9750003814697266" width="3.8349952697753906" x="126.92499923706055"></rect> <g transform="translate(6.834995269775391,0)"><g transform="scale(1)"><path d="M2.06-5.06L6.56-5.06L6.56-8.58L7.73-8.58L7.73 0L6.56 0L6.56-3.98L2.06-3.98L2.06 0L0.89 0L0.89-8.58L2.06-8.58L2.06-5.06ZM15.19 0L14.34-2.48L10.88-2.48L9.98 0L8.81 0L12.05-8.58L13.36-8.58L16.45 0L15.19 0ZM12.61-7.31L11.25-3.52L13.92-3.52L12.66-7.31L12.61-7.31ZM17.67-8.58L18.84-8.58L18.84 0L17.67 0L17.67-8.58ZM22.22-8.58L26.53-1.64L26.53-8.58L27.66-8.58L27.66 0L26.34 0L21.98-6.94L21.94-6.94L21.94 0L20.81 0L20.81-8.58L22.22-8.58ZM35.11 0L34.27-2.48L30.80-2.48L29.91 0L28.73 0L31.97-8.58L33.28-8.58L36.38 0L35.11 0ZM32.53-7.31L31.17-3.52L33.84-3.52L32.58-7.31L32.53-7.31ZM38.81-8.58L43.13-1.64L43.13-8.58L44.25-8.58L44.25 0L42.94 0L38.58-6.94L38.53-6.94L38.53 0L37.41 0L37.41-8.58L38.81-8.58ZM51.56-7.59L48.66-7.59L48.66-8.58L55.59-8.58L55.59-7.59L52.69-7.59L52.69 0L51.56 0L51.56-7.59ZM57.94-1.03L63.09-1.03L63.09 0L56.77 0L56.77-8.58L63-8.58L63-7.59L57.94-7.59L57.94-4.92L62.63-4.92L62.63-3.89L57.94-3.89L57.94-1.03ZM66-8.58L70.31-1.64L70.31-8.58L71.44-8.58L71.44 0L70.13 0L65.77-6.94L65.72-6.94L65.72 0L64.59 0L64.59-8.58L66-8.58ZM79.64-3.61L77.02-3.61L77.02-4.59L80.77-4.59L80.77 0L80.02 0L79.73-1.08Q78.75 0.09 76.92 0.14L76.92 0.14Q75.19 0.14 74.25-0.75L74.25-0.75Q72.84-2.06 72.89-4.36L72.89-4.36Q73.22-8.63 76.97-8.81L76.97-8.81Q80.16-8.63 80.63-6L80.63-6L79.50-6Q79.03-7.78 76.92-7.83L76.92-7.83Q74.25-7.64 74.11-4.31L74.11-4.31Q74.11-0.75 76.97-0.75L76.97-0.75Q78-0.75 78.75-1.31L78.75-1.31Q79.69-2.06 79.64-3.61L79.64-3.61ZM89.30-8.58L86.39-4.41L89.44 0L87.98 0L85.64-3.52L83.30 0L81.89 0L84.98-4.41L82.08-8.58L83.53-8.58L85.69-5.30L87.89-8.58L89.30-8.58ZM90.70-8.58L91.88-8.58L91.88 0L90.70 0L90.70-8.58ZM99.52 0L98.67-2.48L95.20-2.48L94.31 0L93.14 0L96.38-8.58L97.69-8.58L100.78 0L99.52 0ZM96.94-7.31L95.58-3.52L98.25-3.52L96.98-7.31L96.94-7.31ZM103.22-8.58L107.53-1.64L107.53-8.58L108.66-8.58L108.66 0L107.34 0L102.98-6.94L102.94-6.94L102.94 0L101.81 0L101.81-8.58L103.22-8.58ZM116.86-3.61L114.23-3.61L114.23-4.59L117.98-4.59L117.98 0L117.23 0L116.95-1.08Q115.97 0.09 114.14 0.14L114.14 0.14Q112.41 0.14 111.47-0.75L111.47-0.75Q110.06-2.06 110.11-4.36L110.11-4.36Q110.44-8.63 114.19-8.81L114.19-8.81Q117.38-8.63 117.84-6L117.84-6L116.72-6Q116.25-7.78 114.14-7.83L114.14-7.83Q111.47-7.64 111.33-4.31L111.33-4.31Q111.33-0.75 114.19-0.75L114.19-0.75Q115.22-0.75 115.97-1.31L115.97-1.31Q116.91-2.06 116.86-3.61L116.86-3.61Z" transform="translate(-0.890625, 8.8125)"></path></g></g></g></g></g><defs v-gra="od"></defs></svg>